<svg xmlns="http://www.w3.org/2000/svg" version="1.1" xmlns:xlink="http://www.w3.org/1999/xlink" xmlns:svgjs="http://svgjs.com/svgjs" width="1440" height="250" preserveAspectRatio="none" viewBox="0 0 1440 250">
    <g mask="url(&quot;#SvgjsMask1039&quot;)" fill="none">
        <rect width="1440" height="250" x="0" y="0" fill="rgba(24, 18, 43, 1)"></rect>
        <path d="M14 250L264 0L448.5 0L198.5 250z" fill="url(#SvgjsLinearGradient1040)"></path>
        <path d="M260.6 250L510.6 0L708.6 0L458.6 250z" fill="url(#SvgjsLinearGradient1040)"></path>
        <path d="M496.20000000000005 250L746.2 0L926.2 0L676.2 250z" fill="url(#SvgjsLinearGradient1040)"></path>
        <path d="M756.8000000000001 250L1006.8000000000001 0L1122.3000000000002 0L872.3000000000001 250z" fill="url(#SvgjsLinearGradient1040)"></path>
        <path d="M1393 250L1143 0L832.5 0L1082.5 250z" fill="url(#SvgjsLinearGradient1041)"></path>
        <path d="M1189.4 250L939.4000000000001 0L655.9000000000001 0L905.9000000000001 250z" fill="url(#SvgjsLinearGradient1041)"></path>
        <path d="M926.8 250L676.8 0L592.8 0L842.8 250z" fill="url(#SvgjsLinearGradient1041)"></path>
        <path d="M711.1999999999999 250L461.19999999999993 0L296.19999999999993 0L546.1999999999999 250z" fill="url(#SvgjsLinearGradient1041)"></path>
        <path d="M1224.7048111788945 250L1440 34.704811178894545L1440 250z" fill="url(#SvgjsLinearGradient1040)"></path>
        <path d="M0 250L215.29518882110546 250L 0 34.704811178894545z" fill="url(#SvgjsLinearGradient1041)"></path>
    </g>
    <defs>
        <mask id="SvgjsMask1039">
            <rect width="1440" height="250" fill="#ffffff"></rect>
        </mask>
        <linearGradient x1="0%" y1="100%" x2="100%" y2="0%" id="SvgjsLinearGradient1040">
            <stop stop-color="rgba(57, 48, 83, 0.61)" offset="0"></stop>
            <stop stop-opacity="0" stop-color="rgba(57, 48, 83, 0.61)" offset="0.66"></stop>
        </linearGradient>
        <linearGradient x1="100%" y1="100%" x2="0%" y2="0%" id="SvgjsLinearGradient1041">
            <stop stop-color="rgba(57, 48, 83, 0.61)" offset="0"></stop>
            <stop stop-opacity="0" stop-color="rgba(57, 48, 83, 0.61)" offset="0.66"></stop>
        </linearGradient>
    </defs>
</svg>